<svg width="18" height="18" viewBox="0 0 18 18" fill="none" xmlns="http://www.w3.org/2000/svg">
<path fill-rule="evenodd" clip-rule="evenodd" d="M3.93878 8.25C3.93878 5.44495 6.09982 3.25 8.67036 3.25C11.2409 3.25 13.4019 5.44495 13.4019 8.25C13.4019 9.61105 12.8932 10.8285 12.0757 11.7212C12.0593 11.735 12.0432 11.7494 12.0275 11.7644C11.9895 11.8006 11.9551 11.8391 11.9241 11.8795C11.0696 12.7327 9.91825 13.25 8.67036 13.25C6.09982 13.25 3.93878 11.055 3.93878 8.25ZM12.6688 13.8834C11.556 14.7402 10.1765 15.25 8.67036 15.25C4.90997 15.25 1.93878 12.0724 1.93878 8.25C1.93878 4.42763 4.90997 1.25 8.67036 1.25C12.4307 1.25 15.4019 4.42763 15.4019 8.25C15.4019 9.8137 14.9047 11.2695 14.0596 12.444L16.5579 15.0592C16.9394 15.4586 16.9249 16.0916 16.5255 16.4731C16.1262 16.8546 15.4932 16.8401 15.1117 16.4407L12.6688 13.8834Z" fill="#FF79C6"/>
</svg>
