<svg width="24" height="24" viewBox="0 0 24 24" fill="none" xmlns="http://www.w3.org/2000/svg">
<path fill-rule="evenodd" clip-rule="evenodd" d="M19.662 0.999995H5.72511C5.00382 0.993336 4.30419 1.24679 3.75448 1.71405C3.20342 2.18245 2.84012 2.83415 2.73147 3.54916L1.35135 12.5499C1.28609 12.9799 1.31509 13.4189 1.43634 13.8366C1.5576 14.2542 1.7682 14.6405 2.05357 14.9687C2.33893 15.2968 2.69223 15.559 3.089 15.7371C3.48387 15.9143 3.91239 16.004 4.34514 16H9.00003V19C9.00003 20.0609 9.42146 21.0783 10.1716 21.8284C10.9217 22.5786 11.9392 23 13 23C13.3952 23 13.7533 22.7673 13.9138 22.4061L17.6499 14H19.662C20.4696 14.0119 21.2538 13.7282 21.8668 13.202C22.4822 12.6737 22.8823 11.9378 22.991 11.134C22.997 11.0896 23 11.0448 23 11V4C23 3.95516 22.997 3.91038 22.991 3.86595C22.8823 3.06218 22.4822 2.3263 21.8668 1.79802C21.2538 1.27182 20.4696 0.988062 19.662 0.999995ZM19.6877 2.99984C20.0087 2.99416 20.3205 3.10653 20.5641 3.31561C20.793 3.5121 20.9466 3.78114 21 4.07686V10.9231C20.9466 11.2188 20.793 11.4879 20.5641 11.6844C20.3205 11.8935 20.0087 12.0058 19.6877 12.0002L19.67 12H18V3H19.67L19.6877 2.99984ZM12.3922 20.9054L16 12.7878V3H5.70872C5.46756 2.99727 5.23354 3.08173 5.04977 3.23793C4.86601 3.39413 4.74489 3.61148 4.70873 3.84993L3.32871 12.8501C3.30707 12.9932 3.31667 13.1399 3.35704 13.2789C3.39745 13.4181 3.46766 13.5469 3.56278 13.6563C3.6579 13.7657 3.77567 13.8531 3.90792 13.9125C4.04017 13.9718 4.18375 14.0017 4.32871 14.0001L4.34003 13.9999L10 14C10.5523 14 11 14.4477 11 15V19C11 19.5304 11.2107 20.0391 11.5858 20.4142C11.8137 20.6421 12.0908 20.8092 12.3922 20.9054Z" fill="#FF79C6"/>
</svg>
