<svg width="24" height="24" viewBox="0 0 24 24" fill="none" xmlns="http://www.w3.org/2000/svg">
<path fill-rule="evenodd" clip-rule="evenodd" d="M10.5132 5.36252C8.69377 3.5431 5.74391 3.5431 3.9245 5.36252C2.10508 7.18193 2.10508 10.1318 3.9245 11.9512L4.7042 12.7309C4.71695 12.7437 4.72931 12.7567 4.74129 12.7701L12 20.0288L19.2584 12.7704C19.2704 12.757 19.2829 12.7438 19.2958 12.7309L20.0755 11.9512C21.8949 10.1318 21.8949 7.18193 20.0755 5.36252C18.2561 3.5431 15.3062 3.5431 13.4868 5.36252L12.7071 6.14222C12.3166 6.53275 11.6834 6.53275 11.2929 6.14222L10.5132 5.36252ZM20.7484 14.1067C20.7364 14.1201 20.7239 14.1333 20.711 14.1462L12.7081 22.1491C12.5205 22.3366 12.2661 22.442 12.0008 22.4419C12.0005 22.4419 12.0011 22.4419 12.0008 22.4419C12.0005 22.4419 11.9995 22.4419 11.9992 22.4419C11.7339 22.442 11.4795 22.3366 11.2919 22.1491L3.28896 14.1462C3.27607 14.1333 3.26359 14.1201 3.25155 14.1067L2.51029 13.3654C-0.0901777 10.765 -0.0901815 6.54877 2.51028 3.9483C5.11075 1.34784 9.32693 1.34784 11.9274 3.9483L12 4.0209L12.0726 3.9483C14.6731 1.34784 18.8892 1.34784 21.4897 3.9483C24.0902 6.54877 24.0902 10.765 21.4897 13.3654L20.7484 14.1067Z" fill="#FF79C6"/>
</svg>
