<svg width="24" height="22" viewBox="0 0 24 22" fill="none" xmlns="http://www.w3.org/2000/svg">
<path fill-rule="evenodd" clip-rule="evenodd" d="M10.5132 4.36252C8.69377 2.5431 5.74391 2.5431 3.9245 4.36252C2.10508 6.18193 2.10508 9.13179 3.9245 10.9512L4.7042 11.7309C4.71695 11.7437 4.72931 11.7567 4.74129 11.7701L12 19.0288L19.2584 11.7704C19.2704 11.757 19.2829 11.7438 19.2958 11.7309L20.0755 10.9512C21.8949 9.13179 21.8949 6.18193 20.0755 4.36252C18.2561 2.5431 15.3062 2.5431 13.4868 4.36252L12.7071 5.14222C12.3166 5.53275 11.6834 5.53275 11.2929 5.14222L10.5132 4.36252ZM20.7484 13.1067C20.7364 13.1201 20.7239 13.1333 20.711 13.1462L12.7081 21.1491C12.5205 21.3366 12.2661 21.442 12.0008 21.4419C12.0005 21.4419 12.0011 21.4419 12.0008 21.4419C12.0005 21.4419 11.9995 21.4419 11.9992 21.4419C11.7339 21.442 11.4795 21.3366 11.2919 21.1491L3.28896 13.1462C3.27607 13.1333 3.26359 13.1201 3.25155 13.1067L2.51029 12.3654C-0.0901777 9.76496 -0.0901815 5.54877 2.51028 2.9483C5.11075 0.347839 9.32693 0.347839 11.9274 2.9483L12 3.0209L12.0726 2.9483C14.6731 0.347839 18.8892 0.347839 21.4897 2.9483C24.0902 5.54877 24.0902 9.76496 21.4897 12.3654L20.7484 13.1067Z" fill="#FF79C6"/>
</svg>
