<svg width="22" height="22" viewBox="0 0 22 22" fill="none" xmlns="http://www.w3.org/2000/svg">
<path fill-rule="evenodd" clip-rule="evenodd" d="M18.662 -4.57282e-06H4.72511C4.00382 -0.00666402 3.30419 0.246795 2.75448 0.71405C2.20342 1.18245 1.84012 1.83415 1.73147 2.54916L0.351354 11.5499C0.286093 11.9799 0.315093 12.4189 0.436345 12.8366C0.557596 13.2542 0.7682 13.6405 1.05357 13.9687C1.33893 14.2968 1.69223 14.559 2.089 14.7371C2.48387 14.9143 2.91239 15.004 3.34514 15H8.00003V18C8.00003 19.0609 8.42146 20.0783 9.1716 20.8284C9.92175 21.5786 10.9392 22 12 22C12.3952 22 12.7533 21.7673 12.9138 21.4061L16.6499 13H18.662C19.4696 13.0119 20.2538 12.7282 20.8668 12.202C21.4822 11.6737 21.8823 10.9378 21.991 10.134C21.997 10.0896 22 10.0448 22 10V3C22 2.95516 21.997 2.91038 21.991 2.86595C21.8823 2.06218 21.4822 1.3263 20.8668 0.798017C20.2538 0.271822 19.4696 -0.011938 18.662 -4.57282e-06ZM18.6877 1.99984C19.0087 1.99416 19.3205 2.10653 19.5641 2.31561C19.793 2.5121 19.9466 2.78114 20 3.07686V9.92313C19.9466 10.2188 19.793 10.4879 19.5641 10.6844C19.3205 10.8935 19.0087 11.0058 18.6877 11.0002L18.67 11H17V2H18.67L18.6877 1.99984ZM11.3922 19.9054L15 11.7878V2H4.70872C4.46756 1.99727 4.23354 2.08173 4.04977 2.23793C3.86601 2.39413 3.74489 2.61148 3.70873 2.84993L2.32871 11.8501C2.30707 11.9932 2.31667 12.1399 2.35704 12.2789C2.39745 12.4181 2.46766 12.5469 2.56278 12.6563C2.6579 12.7657 2.77567 12.8531 2.90792 12.9125C3.04017 12.9718 3.18375 13.0017 3.32871 13.0001L3.34003 12.9999L9.00003 13C9.55232 13 10 13.4477 10 14V18C10 18.5304 10.2107 19.0391 10.5858 19.4142C10.8137 19.6421 11.0908 19.8092 11.3922 19.9054Z" fill="#FF79C6"/>
</svg>
