<svg width="22" height="22" viewBox="0 0 22 22" fill="none" xmlns="http://www.w3.org/2000/svg">
<path fill-rule="evenodd" clip-rule="evenodd" d="M9.16665 0.833344C8.83732 0.833344 8.53889 1.02729 8.40514 1.32823L5.29175 8.33334H3.33331C2.67027 8.33334 2.03439 8.59674 1.56555 9.06558C1.09671 9.53442 0.833313 10.1703 0.833313 10.8333V16.6667C0.833313 17.3297 1.09671 17.9656 1.56555 18.4344C2.03439 18.9033 2.67027 19.1667 3.33331 19.1667H15.229C15.8301 19.1722 16.4132 18.961 16.8713 18.5716C17.3305 18.1813 17.6333 17.6382 17.7238 17.0423L18.8739 9.54173C18.9283 9.18343 18.9041 8.81758 18.8031 8.46954C18.702 8.12151 18.5265 7.7996 18.2887 7.52612C18.0509 7.25265 17.7565 7.03414 17.4258 6.88575C17.0968 6.73807 16.7397 6.66334 16.3791 6.66668H12.5V4.16668C12.5 3.28262 12.1488 2.43478 11.5237 1.80965C10.8985 1.18453 10.0507 0.833344 9.16665 0.833344ZM9.67317 2.57884L6.66665 9.34352V17.5H15.2427C15.4437 17.5023 15.6387 17.4319 15.7919 17.3017C15.945 17.1716 16.0459 16.9904 16.0761 16.7917L17.2261 9.29162C17.2441 9.17229 17.2361 9.05013 17.2025 8.93423C17.1688 8.81822 17.1103 8.71091 17.031 8.61975C16.9518 8.5286 16.8536 8.45576 16.7434 8.4063C16.6332 8.35683 16.5135 8.33192 16.3927 8.33329L16.3833 8.3334L11.6666 8.33334C11.2064 8.33334 10.8333 7.96025 10.8333 7.50001V4.16668C10.8333 3.72465 10.6577 3.30073 10.3452 2.98817C10.1553 2.7983 9.92432 2.65897 9.67317 2.57884ZM4.99998 10V17.5H3.33331C3.1123 17.5 2.90034 17.4122 2.74406 17.2559C2.58778 17.0997 2.49998 16.8877 2.49998 16.6667V10.8333C2.49998 10.6123 2.58778 10.4004 2.74406 10.2441C2.90034 10.0878 3.1123 10 3.33331 10H4.99998Z" fill="#FF79C6"/>
</svg>
