<svg width="24" height="24" viewBox="0 0 24 24" fill="none" xmlns="http://www.w3.org/2000/svg">
<path fill-rule="evenodd" clip-rule="evenodd" d="M23.5994 0.400644C23.8415 0.642752 23.945 0.970942 23.91 1.28669C23.9002 1.3752 23.8795 1.46274 23.8479 1.54713L16.2725 23.1912C16.1258 23.6105 15.738 23.8977 15.2941 23.9158C14.8503 23.9339 14.4404 23.6792 14.26 23.2733L10.0959 13.9041L0.726669 9.73997C0.320765 9.55957 0.0661123 9.14967 0.084219 8.70585C0.102326 8.26203 0.389522 7.87423 0.808772 7.7275L22.4528 0.152081C22.5377 0.120294 22.6258 0.099531 22.7149 0.0897935C22.7804 0.0825959 22.846 0.0814304 22.911 0.0861145C23.1618 0.104036 23.4076 0.208879 23.5994 0.400644ZM18.7105 3.75744L4.10365 8.86983L10.6767 11.7912L18.7105 3.75744ZM12.2088 13.3233L20.2426 5.2895L15.1302 19.8963L12.2088 13.3233Z" fill="#FF79C6"/>
</svg>
