<svg width="16" height="16" viewBox="0 0 16 16" fill="none" xmlns="http://www.w3.org/2000/svg">
<path fill-rule="evenodd" clip-rule="evenodd" d="M2.93878 7.25C2.93878 4.44495 5.09982 2.25 7.67036 2.25C10.2409 2.25 12.4019 4.44495 12.4019 7.25C12.4019 8.61105 11.8932 9.82845 11.0757 10.7212C11.0593 10.735 11.0432 10.7494 11.0275 10.7644C10.9895 10.8006 10.9551 10.8391 10.9241 10.8795C10.0696 11.7327 8.91825 12.25 7.67036 12.25C5.09982 12.25 2.93878 10.055 2.93878 7.25ZM11.6688 12.8834C10.556 13.7402 9.17651 14.25 7.67036 14.25C3.90997 14.25 0.938782 11.0724 0.938782 7.25C0.938782 3.42763 3.90997 0.25 7.67036 0.25C11.4307 0.25 14.4019 3.42763 14.4019 7.25C14.4019 8.8137 13.9047 10.2695 13.0596 11.444L15.5579 14.0592C15.9394 14.4586 15.9249 15.0916 15.5255 15.4731C15.1262 15.8546 14.4932 15.8401 14.1117 15.4407L11.6688 12.8834Z" fill="#FF79C6"/>
</svg>
